<svg id="Layer_1" data-name="Layer 1" xmlns="http://www.w3.org/2000/svg" viewBox="0 0 31.15 23.51"><path d="M30.15,23.51H1a1,1,0,0,1-1-1V15.8a1,1,0,0,1,1-1H30.15a1,1,0,0,1,1,1v6.71A1,1,0,0,1,30.15,23.51ZM2,21.51H29.15V16.8H2Z"/><path d="M30.15,16.8H1a1,1,0,0,1-1-1V15A5.13,5.13,0,0,1,5.13,9.9H26A5.13,5.13,0,0,1,31.15,15v.77A1,1,0,0,1,30.15,16.8ZM2,14.8H29.14A3.13,3.13,0,0,0,26,11.9H5.13A3.13,3.13,0,0,0,2,14.8Z"/><path d="M13.88,11.9H7a1,1,0,0,1-1-1V9.66A3,3,0,0,1,9,6.71h2.92a3,3,0,0,1,3,3V10.9A1,1,0,0,1,13.88,11.9ZM8,9.9h4.84V9.66a1,1,0,0,0-1-.95H9a1,1,0,0,0-1,.95Z"/><path d="M24.11,11.9H17.27a1,1,0,0,1-1-1V9.66a3,3,0,0,1,2.95-2.95h2.93a3,3,0,0,1,3,3V10.9A1,1,0,0,1,24.11,11.9Zm-5.84-2h4.84V9.66a1,1,0,0,0-1-.95H19.22a1,1,0,0,0-.95.95Z"/><path d="M26.74,11.9H4.4a1,1,0,0,1-1-1V1a1,1,0,0,1,1-1H26.74a1,1,0,0,1,1,1v9.9A1,1,0,0,1,26.74,11.9ZM5.4,9.9H25.74V2H5.4Z"/></svg>