<svg id="Layer_1" data-name="Layer 1" xmlns="http://www.w3.org/2000/svg" viewBox="0 0 20 22"><g id="Icon_feather-calendar" data-name="Icon feather-calendar"><path d="M17,22H3a3,3,0,0,1-3-3V5A3,3,0,0,1,3,2H17a3,3,0,0,1,3,3V19A3,3,0,0,1,17,22ZM3,4A1,1,0,0,0,2,5V19a1,1,0,0,0,1,1H17a1,1,0,0,0,1-1V5a1,1,0,0,0-1-1Z"/><path d="M14,6a1,1,0,0,1-1-1V1a1,1,0,0,1,2,0V5A1,1,0,0,1,14,6Z"/><path d="M6,6A1,1,0,0,1,5,5V1A1,1,0,0,1,7,1V5A1,1,0,0,1,6,6Z"/><path d="M19,10H1A1,1,0,0,1,1,8H19a1,1,0,0,1,0,2Z"/></g></svg>