<svg id="Layer_1" data-name="Layer 1" xmlns="http://www.w3.org/2000/svg" viewBox="0 0 24.48 20"><g id="Icon_feather-mail" data-name="Icon feather-mail"><path d="M21.21,20H3.28A3.29,3.29,0,0,1,0,16.73V3.28A3.3,3.3,0,0,1,3.27,0H21.21a3.28,3.28,0,0,1,3.27,3.27V16.72A3.28,3.28,0,0,1,21.21,20ZM3.28,2.07A1.22,1.22,0,0,0,2.07,3.28V16.72a1.22,1.22,0,0,0,1.21,1.21H21.21a1.21,1.21,0,0,0,1.2-1.21V3.28A1.21,1.21,0,0,0,21.2,2.07Z"/><path d="M12.24,12.16a1.06,1.06,0,0,1-.59-.19L.44,4.13A1,1,0,0,1,.19,2.68a1,1,0,0,1,1.44-.25L12.24,9.86,22.85,2.43a1,1,0,0,1,1.45.25A1.05,1.05,0,0,1,24,4.13L12.84,12A1.09,1.09,0,0,1,12.24,12.16Z"/></g></svg>