<svg id="Layer_1" data-name="Layer 1" xmlns="http://www.w3.org/2000/svg" viewBox="0 0 12.85 22.25"><path d="M8.18,22.25H4.23a1,1,0,0,1-1-1V13.4H1a1,1,0,0,1-1-1V8.73a1,1,0,0,1,1-1H3.22V5.94C3.22,2.33,5.49,0,9,0a20,20,0,0,1,3,.26,1,1,0,0,1,.84,1V4.37a1,1,0,0,1-1,1H10.25c-.77,0-1.06.26-1.06,1V7.72H11.7a1,1,0,0,1,.76.35,1,1,0,0,1,.24.81l-.57,3.66a1,1,0,0,1-1,.86H9.19v7.84A1,1,0,0,1,8.18,22.25Zm-3-2H7.1V12.49a1,1,0,0,1,1-1h2.06l.25-1.62H8.1a1,1,0,0,1-1-1V6.52a2.81,2.81,0,0,1,3-3h.58V2.35c-.6-.07-1.21-.11-1.82-.12-2.39,0-3.72,1.38-3.72,3.88V8.87a1,1,0,0,1-1,1H2v1.62H4.18a1,1,0,0,1,1,1Z"/></svg>