<svg id="Layer_1" data-name="Layer 1" xmlns="http://www.w3.org/2000/svg" viewBox="0 0 22.05 22"><defs><style>.cls-1{fill:#fff;}</style></defs><g id="Icon_feather-instagram" data-name="Icon feather-instagram"><path class="cls-1" d="M16.05,22h-10a6,6,0,0,1-6-6V6a6,6,0,0,1,6-6h10a6,6,0,0,1,6,6V16A6,6,0,0,1,16.05,22ZM6.05,2a4,4,0,0,0-4,4V16a4,4,0,0,0,4,4h10a4,4,0,0,0,4-4V6a4,4,0,0,0-4-4Z"/><path class="cls-1" d="M11.09,16a5,5,0,0,1-4.94-4.27A5,5,0,0,1,10.36,6a5.17,5.17,0,0,1,1.47,0A5,5,0,0,1,16,10.22h0a5,5,0,0,1-4.21,5.68A4.71,4.71,0,0,1,11.09,16Zm0-8a3.15,3.15,0,0,0-.44,0,3,3,0,1,0,.88,5.93,2.94,2.94,0,0,0,2-1.18,3,3,0,0,0,.55-2.22h0A3,3,0,0,0,11.54,8Z"/><path class="cls-1" d="M16.55,6.5a1,1,0,0,1-.71-.3.61.61,0,0,1-.12-.15.56.56,0,0,1-.09-.17.6.6,0,0,1-.06-.19,1.23,1.23,0,0,1,0-.19,1,1,0,0,1,.29-.71,1,1,0,0,1,1.42,0,1,1,0,0,1,.29.71,1.23,1.23,0,0,1,0,.19.6.6,0,0,1-.06.19.56.56,0,0,1-.09.17,1,1,0,0,1-.12.15A1,1,0,0,1,16.55,6.5Z"/></g></svg>