<svg id="Layer_1" data-name="Layer 1" xmlns="http://www.w3.org/2000/svg" viewBox="0 0 27.65 25.68"><defs><style>.cls-1{fill:#efcf4b;}</style></defs><path id="Icon_ionic-ios-star" data-name="Icon ionic-ios-star" class="cls-1" d="M26.61,8.89H17.53L14.77.66a1,1,0,0,0-1.29-.6,1,1,0,0,0-.59.6L10.13,8.89H1a1,1,0,0,0-1,1A.88.88,0,0,0,0,10a.93.93,0,0,0,.41.7L7.89,16,5,24.33a1,1,0,0,0,.34,1.11,1,1,0,0,0,.56.24,1.13,1.13,0,0,0,.61-.22l7.29-5.19,7.28,5.19a1.16,1.16,0,0,0,.62.22.87.87,0,0,0,.55-.24,1,1,0,0,0,.34-1.11L19.75,16l7.41-5.31.17-.15a1.06,1.06,0,0,0,.32-.66A1,1,0,0,0,26.61,8.89Z"/></svg>