<svg id="Layer_1" data-name="Layer 1" xmlns="http://www.w3.org/2000/svg" viewBox="0 0 24.86 21.99"><path d="M12.43,22a2.37,2.37,0,0,1-1.74-.75L2.06,12.34c-.09-.1-.18-.19-.26-.29A7.41,7.41,0,0,1,2.57,1.6a7.13,7.13,0,0,1,9.72.69l.14.15.16-.17a7.12,7.12,0,0,1,9.68-.69l0,0,.29.26a7.4,7.4,0,0,1,.22,10.47l-8.64,8.93-.08.07A2.36,2.36,0,0,1,12.43,22ZM7.05,2a5.13,5.13,0,0,0-3.2,1.13,5.41,5.41,0,0,0-.53,7.62l.18.2,8.63,8.92a.47.47,0,0,0,.29.13.42.42,0,0,0,.28-.11L21.36,11A5.42,5.42,0,0,0,21.2,3.3L21,3.13a5.1,5.1,0,0,0-6.95.51l-.9.93a1,1,0,0,1-1.44,0l-.88-.91A5.11,5.11,0,0,0,7.05,2Z"/></svg>