<svg id="Layer_1" data-name="Layer 1" xmlns="http://www.w3.org/2000/svg" viewBox="0 0 26.53 22.01"><defs><style>.cls-1{fill:#fff;}</style></defs><path class="cls-1" d="M9.1,22A17.73,17.73,0,0,1,.51,19.72,1,1,0,0,1,0,18.57a1,1,0,0,1,1-.73,12,12,0,0,0,5.68-1.18C-1.91,11.53,2.27,1.82,2.32,1.71a1,1,0,0,1,.81-.59,1,1,0,0,1,.92.43,10.83,10.83,0,0,0,8.21,4.6V6.06a6,6,0,0,1,10-4.49A11.14,11.14,0,0,0,25,.19,1,1,0,0,1,26.5,1.24a9.63,9.63,0,0,1-2.23,4.19,5.83,5.83,0,0,1,0,.59c0,6.07-2.69,11.13-7.37,13.89A15.43,15.43,0,0,1,9.1,22ZM5,19.42a13.84,13.84,0,0,0,11-1.24C20,15.8,22.3,11.36,22.3,6a3.65,3.65,0,0,0-.08-.74,1,1,0,0,1,.29-.9,8,8,0,0,0,.92-1.1,11.42,11.42,0,0,1-1.12.39,1,1,0,0,1-1-.3,4,4,0,0,0-7,2.67V7.17a1,1,0,0,1-1,1,12.78,12.78,0,0,1-9.68-4C2.9,7,2.46,12.7,9.21,15.7a1,1,0,0,1,.16,1.74A14.23,14.23,0,0,1,5,19.42Z"/></svg>